<svg width="18" height="18" viewBox="0 0 18 18" fill="none" xmlns="http://www.w3.org/2000/svg">
<path fill-rule="evenodd" clip-rule="evenodd" d="M0.75 8.7525C0.75 4.15428 4.35253 0.75 9 0.75C13.6475 0.75 17.25 4.15428 17.25 8.7525C17.25 13.3507 13.6475 16.755 9 16.755C8.16523 16.755 7.36436 16.6448 6.61187 16.4379C6.4656 16.3976 6.31005 16.409 6.17124 16.4702L4.53373 17.1931C4.10539 17.3822 3.62187 17.0776 3.60752 16.6095L3.56259 15.142C3.55706 14.9611 3.47572 14.7922 3.34096 14.6715C1.73571 13.236 0.75 11.1577 0.75 8.7525ZM6.46935 7.24796L4.04591 11.0928C3.81334 11.4618 4.26689 11.8776 4.61433 11.6139L7.21751 9.63829C7.39359 9.50463 7.63694 9.50393 7.81377 9.63655L9.7413 11.0822C10.3197 11.516 11.1452 11.3637 11.5307 10.7521L13.9541 6.90721C14.1866 6.53822 13.7331 6.12242 13.3857 6.38609L10.7825 8.36171C10.6064 8.49536 10.3631 8.49607 10.1862 8.36341L8.25874 6.9178C7.68033 6.48401 6.85484 6.63631 6.46935 7.24796Z" fill="#173817"/>
</svg>
