<svg width="20" height="16" viewBox="0 0 20 16" fill="none" xmlns="http://www.w3.org/2000/svg">
<path d="M17.2897 4.26008C17.3009 4.42171 17.3009 4.58333 17.3009 4.74644C17.3009 9.71651 13.5173 15.4485 6.59883 15.4485V15.4455C4.55509 15.4485 2.55381 14.8631 0.833313 13.7593C1.13049 13.7951 1.42916 13.8129 1.72857 13.8137C3.42225 13.8152 5.06752 13.2469 6.39997 12.2004C4.79045 12.1699 3.37905 11.1205 2.88599 9.58841C3.44981 9.69715 4.03075 9.6748 4.58414 9.52361C2.82939 9.16908 1.56694 7.62734 1.56694 5.83683C1.56694 5.82045 1.56694 5.80481 1.56694 5.78917C2.0898 6.08038 2.67521 6.24201 3.27403 6.25988C1.62131 5.15534 1.11187 2.95668 2.10991 1.23767C4.01958 3.58753 6.83717 5.01606 9.86182 5.16726C9.55868 3.86087 9.97279 2.49192 10.95 1.57358C12.4649 0.149515 14.8475 0.222506 16.2716 1.73669C17.114 1.5706 17.9213 1.26151 18.6602 0.823562C18.3794 1.69424 17.7917 2.43383 17.0067 2.9038C17.7523 2.81591 18.4807 2.6163 19.1666 2.31168C18.6617 3.0684 18.0256 3.72755 17.2897 4.26008Z" fill="#173817"/>
</svg>
