<svg width="18" height="18" viewBox="0 0 18 18" fill="none" xmlns="http://www.w3.org/2000/svg">
<path d="M17.25 1.96324V16.0368C17.25 16.3585 17.1222 16.6671 16.8947 16.8947C16.6671 17.1222 16.3585 17.25 16.0368 17.25H1.96324C1.64147 17.25 1.33287 17.1222 1.10535 16.8947C0.877823 16.6671 0.75 16.3585 0.75 16.0368V1.96324C0.75 1.64147 0.877823 1.33287 1.10535 1.10535C1.33287 0.877823 1.64147 0.75 1.96324 0.75L16.0368 0.75C16.3585 0.75 16.6671 0.877823 16.8947 1.10535C17.1222 1.33287 17.25 1.64147 17.25 1.96324ZM5.60294 7.05882H3.17647V14.8235H5.60294V7.05882ZM5.82132 4.38971C5.8226 4.20616 5.78772 4.02417 5.71866 3.85411C5.6496 3.68405 5.54772 3.52925 5.41884 3.39857C5.28995 3.26788 5.13659 3.16386 4.9675 3.09245C4.79842 3.02103 4.61693 2.98362 4.43338 2.98235H4.38971C4.01645 2.98235 3.65849 3.13063 3.39456 3.39456C3.13063 3.65849 2.98235 4.01645 2.98235 4.38971C2.98235 4.76296 3.13063 5.12092 3.39456 5.38485C3.65849 5.64878 4.01645 5.79706 4.38971 5.79706C4.57326 5.80157 4.75591 5.76988 4.92721 5.70378C5.09851 5.63768 5.25511 5.53848 5.38806 5.41184C5.52101 5.2852 5.6277 5.13361 5.70204 4.96572C5.77638 4.79783 5.81692 4.61694 5.82132 4.43338V4.38971ZM14.8235 10.1065C14.8235 7.77221 13.3385 6.86471 11.8632 6.86471C11.3802 6.84052 10.8993 6.9434 10.4684 7.16309C10.0375 7.38279 9.67177 7.71161 9.40765 8.11676H9.33971V7.05882H7.05882V14.8235H9.48529V10.6937C9.45022 10.2707 9.58345 9.85099 9.85605 9.52568C10.1287 9.20038 10.5186 8.99578 10.9412 8.95632H11.0334C11.805 8.95632 12.3776 9.44162 12.3776 10.6646V14.8235H14.8041L14.8235 10.1065Z" fill="#173817"/>
</svg>
